<svg xmlns="http://www.w3.org/2000/svg" width="400" height="400" viewBox="0 0 400 400">
    <style>
        .st0 { fill: #C9C0C0; }
        .st1 { fill: #7F7979; }
    </style>
    <circle class="st0" cx="200" cy="200" r="103.5" />
    <path class="st1" d="M78.1,185.9v-32.3h23.2v5.9H84.2v8.8h16.2v5.6H84.2v12H78.1z" />
    <path class="st1" d="m138.2 169.9c-0.1 8.4-5.2 16.7-16.6 16.7s-16.6-8.2-16.6-16.7 5.4-17 16.6-17 16.7 8.5 16.6 17zm-27.1 0.1c0.1 5.3 3 11 10.6 11s10.5-5.7 10.6-11c0.1-5.4-3-11.5-10.6-11.5-7.6-0.1-10.8 6.1-10.6 11.5z" />
    <path class="st1" d="m149.2 159.1h-10.3v-5.5h26.6v5.5h-10.3v26.8h-6.1v-26.8z" />
   <path class="st1" d="m201 169.9c-0.1 8.4-5.2 16.7-16.6 16.7s-16.6-8.2-16.6-16.7 5.4-17 16.6-17c11.1 0 16.7 8.5 16.6 17zm-27.2 0.1c0.1 5.3 3 11 10.6 11s10.5-5.7 10.6-11c0.1-5.4-3-11.5-10.6-11.5-7.6-0.1-10.7 6.1-10.6 11.5z"/>
										<path class="st1" d="m236 153.5h6.1v32.4h-3.8l-17-21.8v21.8h-6.1v-32.3h4.9l15.8 20v-20.1z"/>
										<path class="st1" d="m270.7 179.8h-16.9l-2.8 6.1h-6.6l14.5-32.3h6.6l14.5 32.3h-6.6l-2.7-6.1zm-16.8-31.1c1.1-2.8 3-4.8 6.1-4.1 2.2 0.5 4.4 3 5.9 0l3.8 1.8c-1.4 3.6-3.7 4.8-6 4.2-2.4-0.6-4.4-3.5-6.2 0l-3.6-1.9zm8.3 11.6l-6 13.8h12l-6-13.8z"/>
										<path class="st1" d="m312.6 169.9c-0.1 8.4-5.2 16.7-16.6 16.7s-16.6-8.2-16.6-16.7 5.4-17 16.6-17 16.7 8.5 16.6 17zm-27.2 0.1c0.1 5.3 3 11 10.6 11s10.5-5.7 10.6-11c0.1-5.4-3-11.5-10.6-11.5-7.6-0.1-10.7 6.1-10.6 11.5z"/>
										<path class="st1" d="m91.2 224.8c0.1 8.2-4.8 16.4-16.2 16.4h-12.7v-32.2h12.7c11.1 0 16.1 7.9 16.2 15.8zm-22.8 10.6h6.6c7.3 0 10.3-5.4 10.1-10.6-0.1-5-3.1-10.1-10.1-10.1h-6.6v20.7z"/>
										<path class="st1" d="m95.8 241.3v-32.3h6v32.3h-6z"/>
										<path class="st1" d="m128.4 216.8c-1.1-1.8-4.2-3.6-7.7-3.6-4.5 0-6.7 1.9-6.7 4.3 0 2.8 3.3 3.6 7.2 4.1 6.7 0.8 13 2.6 13 10.3 0 7.2-6.4 10.3-13.6 10.3-6.6 0-11.7-2-14.1-7.9l5.1-2.6c1.4 3.6 5.2 5.1 9.1 5.1 3.8 0 7.4-1.3 7.4-4.8 0-3-3.2-4.3-7.5-4.8-6.6-0.8-12.7-2.5-12.7-9.8 0-6.6 6.6-9.4 12.5-9.4 5 0 10.3 1.4 12.7 6.4l-4.7 2.4z"/>
										<path class="st1" d="m154.2 231.8h-9.1v9.5h-6.1v-32.3h15.2c15.8-0.1 15.9 22.8 0 22.8zm-9.1-5.6h9.1c7.8 0 7.8-11.5 0-11.5h-9.1v11.5z"/>
										<path class="st1" d="m202 225.3c-0.1 8.4-5.2 16.7-16.6 16.7s-16.6-8.2-16.6-16.7 5.4-17 16.6-17c11.1 0 16.7 8.6 16.6 17zm-27.2 0.1c0.1 5.3 3 11 10.6 11s10.5-5.7 10.6-11c0.1-5.4-3-11.5-10.6-11.5s-10.7 6.1-10.6 11.5z"/>
										<path class="st1" d="M227.7,208.9h6.1v32.4H230v0l-17-21.8v21.8h-6.1V209h4.9l15.8,20V208.9z"/>
										<path class="st1" d="m239.4 241.3v-32.3h6v32.3h-6z"/>
										<path class="st1" d="M268.8,241.4h-6.3L249,209h6.8l9.7,25.2l9.8-25.2h6.8L268.8,241.4z"/>
										<path class="st1" d="m310 241.3h-24.2v-32.3h24.2v5.9h-18.1v7.4h17.5v5.7h-17.5v7.3h18.1v6z"/>
										<path class="st1" d="m320.8 209v26.7h16.6v5.6h-22.7v-32.3h6.1z"/>
</svg>
