<?xml version="1.0" standalone="no"?>
<!DOCTYPE svg PUBLIC "-//W3C//DTD SVG 20010904//EN"
 "http://www.w3.org/TR/2001/REC-SVG-20010904/DTD/svg10.dtd">
<svg version="1.0" xmlns="http://www.w3.org/2000/svg"
 width="3810.000000pt" height="3810.000000pt" viewBox="0 0 3810.000000 3810.000000"
 preserveAspectRatio="xMidYMid meet">

<g transform="translate(0.000000,3810.000000) scale(0.100000,-0.100000)"
fill="#000000" stroke="none">
<path d="M2056 27909 l-26 -20 0 -7639 c0 -6098 3 -7640 13 -7648 9 -8 12
1522 12 7646 l0 7657 16965 5 c9331 3 16957 8 16947 13 -10 4 -7638 7 -16951
7 l-16933 0 -27 -21z"/>
<path d="M8908 26213 c7 -3 16 -2 19 1 4 3 -2 6 -13 5 -11 0 -14 -3 -6 -6z"/>
<path d="M19588 26213 c7 -3 16 -2 19 1 4 3 -2 6 -13 5 -11 0 -14 -3 -6 -6z"/>
<path d="M27238 26213 c7 -3 16 -2 19 1 4 3 -2 6 -13 5 -11 0 -14 -3 -6 -6z"/>
<path d="M33838 26213 c7 -3 16 -2 19 1 4 3 -2 6 -13 5 -11 0 -14 -3 -6 -6z"/>
<path d="M6045 26194 l-50 -13 65 6 c36 3 74 9 85 14 34 13 -43 8 -100 -7z"/>
<path d="M9050 26200 c14 -4 34 -8 45 -8 l20 -1 -20 9 c-11 5 -31 8 -45 8
l-25 0 25 -8z"/>
<path d="M13749 26205 c-3 -2 -30 -9 -60 -14 -51 -9 -49 -10 21 -4 86 6 138
21 79 22 -20 1 -38 -1 -40 -4z"/>
<path d="M16695 26200 c11 -5 34 -9 50 -9 26 0 27 2 10 9 -11 5 -33 9 -50 9
-26 0 -27 -2 -10 -9z"/>
<path d="M24315 26200 c11 -5 29 -9 40 -9 17 -1 17 1 5 9 -8 5 -26 9 -40 9
-23 0 -23 -1 -5 -9z"/>
<path d="M16788 26183 c6 -2 18 -2 25 0 6 3 1 5 -13 5 -14 0 -19 -2 -12 -5z"/>
<path d="M9255 26160 c11 -5 29 -9 40 -9 l20 0 -20 9 c-11 5 -29 9 -40 9 l-20
0 20 -9z"/>
<path d="M5868 26153 c7 -3 16 -2 19 1 4 3 -2 6 -13 5 -11 0 -14 -3 -6 -6z"/>
<path d="M16958 26153 c7 -3 16 -2 19 1 4 3 -2 6 -13 5 -11 0 -14 -3 -6 -6z"/>
<path d="M24578 26153 c7 -3 16 -2 19 1 4 3 -2 6 -13 5 -11 0 -14 -3 -6 -6z"/>
<path d="M5734 26134 c-19 -15 -19 -16 1 -8 11 4 38 10 60 14 l40 7 -41 2
c-23 0 -48 -6 -60 -15z"/>
<path d="M9343 26143 c9 -2 23 -2 30 0 6 3 -1 5 -18 5 -16 0 -22 -2 -12 -5z"/>
<path d="M13370 26130 c-53 -22 -39 -26 22 -6 24 8 54 16 68 19 19 3 16 4 -10
5 -19 1 -55 -8 -80 -18z"/>
<path d="M17040 26140 c19 -5 46 -11 60 -15 l25 -6 -25 15 c-14 8 -41 15 -60
14 l-35 0 35 -8z"/>
<path d="M24675 26143 c22 -3 44 -9 50 -14 5 -5 16 -9 25 -9 12 1 11 4 -4 15
-12 9 -38 14 -65 13 l-46 -1 40 -4z"/>
<path d="M17138 26113 c7 -3 16 -2 19 1 4 3 -2 6 -13 5 -11 0 -14 -3 -6 -6z"/>
<path d="M24778 26113 c7 -3 16 -2 19 1 4 3 -2 6 -13 5 -11 0 -14 -3 -6 -6z"/>
<path d="M5630 26100 c-8 -5 -10 -10 -5 -10 6 0 17 5 25 10 8 5 11 10 5 10 -5
0 -17 -5 -25 -10z"/>
<path d="M19440 26069 c-6 -11 -10 -25 -8 -30 2 -5 8 4 15 21 13 34 9 40 -7 9z"/>
<path d="M33986 26075 c4 -11 10 -40 14 -65 l7 -45 1 40 c1 22 -6 51 -14 65
-10 16 -13 18 -8 5z"/>
<path d="M27096 26063 c-6 -14 -5 -15 5 -6 7 7 10 15 7 18 -3 3 -9 -2 -12 -12z"/>
<path d="M9650 26060 c8 -5 20 -10 25 -10 6 0 3 5 -5 10 -8 5 -19 10 -25 10
-5 0 -3 -5 5 -10z"/>
<path d="M13150 26054 c-22 -8 -28 -13 -15 -13 11 0 31 6 45 14 31 17 17 17
-30 -1z"/>
<path d="M24946 26060 c5 -5 25 -12 44 -15 l35 -6 -40 15 c-47 18 -52 19 -39
6z"/>
<path d="M17320 26050 c8 -5 26 -10 39 -10 32 0 24 6 -19 14 -25 4 -31 3 -20
-4z"/>
<path d="M5468 26043 c6 -2 18 -2 25 0 6 3 1 5 -13 5 -14 0 -19 -2 -12 -5z"/>
<path d="M9698 26043 c7 -3 16 -2 19 1 4 3 -2 6 -13 5 -11 0 -14 -3 -6 -6z"/>
<path d="M17407 26019 c7 -7 15 -10 18 -7 3 3 -2 9 -12 12 -14 6 -15 5 -6 -5z"/>
<path d="M27082 25673 c-1 -182 1 -334 6 -336 4 -3 6 95 4 216 -4 414 -8 453
-10 120z"/>
<path d="M9970 25910 c8 -5 20 -10 25 -10 6 0 3 5 -5 10 -8 5 -19 10 -25 10
-5 0 -3 -5 5 -10z"/>
<path d="M17630 25916 c0 -2 7 -7 16 -10 8 -3 12 -2 9 4 -6 10 -25 14 -25 6z"/>
<path d="M25420 25836 c0 -2 8 -10 18 -17 15 -13 16 -12 3 4 -13 16 -21 21
-21 13z"/>
<path d="M17790 25826 c0 -2 8 -10 18 -17 15 -13 16 -12 3 4 -13 16 -21 21
-21 13z"/>
<path d="M4609 25443 c-13 -16 -12 -17 4 -4 9 7 17 15 17 17 0 8 -8 3 -21 -13z"/>
<path d="M18272 25358 c7 -15 15 -23 17 -17 2 6 -4 18 -13 27 -15 15 -15 15
-4 -10z"/>
<path d="M25908 25333 c7 -3 16 -2 19 1 4 3 -2 6 -13 5 -11 0 -14 -3 -6 -6z"/>
<path d="M5977 24933 c887 -2 2339 -2 3225 0 887 1 162 2 -1612 2 -1774 0
-2499 -1 -1613 -2z"/>
<path d="M13622 24933 c889 -2 2347 -2 3240 0 893 1 165 2 -1617 2 -1782 0
-2512 -1 -1623 -2z"/>
<path d="M19437 24933 c-4 -3 -7 -11 -7 -17 0 -7 4 -6 8 1 7 10 692 13 3353
16 l3344 2 -3346 3 c-1840 1 -3349 -1 -3352 -5z"/>
<path d="M28872 24933 c940 -2 2476 -2 3415 0 940 1 171 2 -1707 2 -1878 0
-2647 -1 -1708 -2z"/>
<path d="M11955 24879 c-4 -6 -5 -12 -2 -15 2 -3 7 2 10 11 7 17 1 20 -8 4z"/>
<path d="M4252 24780 c0 -14 2 -19 5 -12 2 6 2 18 0 25 -3 6 -5 1 -5 -13z"/>
<path d="M11913 24775 c-3 -9 -3 -18 -1 -21 3 -3 8 4 11 16 6 23 -1 27 -10 5z"/>
<path d="M26231 24715 c1 -19 18 -51 18 -35 0 8 -4 22 -9 30 -5 8 -9 11 -9 5z"/>
<path d="M18617 24589 c4 -13 8 -18 11 -10 2 7 -1 18 -6 23 -8 8 -9 4 -5 -13z"/>
<path d="M11856 24545 c-9 -26 -7 -32 5 -12 6 10 9 21 6 23 -2 3 -7 -2 -11
-11z"/>
<path d="M26283 24525 c0 -22 2 -30 4 -17 2 12 2 30 0 40 -3 9 -5 -1 -4 -23z"/>
<path d="M10981 24470 c-1 -3 6 -25 13 -50 11 -32 15 -38 15 -20 0 20 -28 89
-28 70z"/>
<path d="M4165 24439 c-4 -6 -5 -12 -2 -15 2 -3 7 2 10 11 7 17 1 20 -8 4z"/>
<path d="M4152 24380 c0 -19 2 -27 5 -17 2 9 2 25 0 35 -3 9 -5 1 -5 -18z"/>
<path d="M11816 24345 c-3 -9 -6 -22 -5 -28 0 -7 5 -1 10 12 5 13 8 26 5 28
-2 2 -6 -3 -10 -12z"/>
<path d="M11017 24270 c3 -36 9 -74 14 -85 10 -25 0 80 -12 120 -5 20 -6 8 -2
-35z"/>
<path d="M4137 24300 c-4 -14 -6 -45 -6 -70 l1 -45 9 55 c10 60 8 101 -4 60z"/>
<path d="M18672 24275 c0 -22 4 -53 8 -70 7 -26 8 -23 8 20 0 28 -3 59 -8 70
-7 15 -8 11 -8 -20z"/>
<path d="M26327 24250 c3 -36 9 -74 14 -85 14 -36 9 67 -6 110 l-14 40 6 -65z"/>
<path d="M11792 24080 c0 -14 2 -19 5 -12 2 6 2 18 0 25 -3 6 -5 1 -5 -13z"/>
<path d="M26358 23320 c1 -415 4 -773 5 -795 2 -22 4 295 4 705 1 410 -2 768
-5 795 -4 28 -6 -290 -4 -705z"/>
<path d="M18704 23955 c0 -60 1 -84 3 -52 2 32 2 81 0 110 -2 29 -3 3 -3 -58z"/>
<path d="M11782 24020 c0 -19 2 -27 5 -17 2 9 2 25 0 35 -3 9 -5 1 -5 -18z"/>
<path d="M4114 23935 c0 -60 1 -84 3 -52 2 32 2 81 0 110 -2 29 -3 3 -3 -58z"/>
<path d="M11042 24010 c0 -19 2 -27 5 -17 2 9 2 25 0 35 -3 9 -5 1 -5 -18z"/>
<path d="M14620 24000 c-41 -4 256 -7 660 -7 404 0 697 3 650 8 -102 9 -1204
8 -1310 -1z"/>
<path d="M6918 23983 c7 -3 16 -2 19 1 4 3 -2 6 -13 5 -11 0 -14 -3 -6 -6z"/>
<path d="M8318 23983 c6 -2 18 -2 25 0 6 3 1 5 -13 5 -14 0 -19 -2 -12 -5z"/>
<path d="M14498 23983 c7 -3 16 -2 19 1 4 3 -2 6 -13 5 -11 0 -14 -3 -6 -6z"/>
<path d="M16048 23983 c7 -3 16 -2 19 1 4 3 -2 6 -13 5 -11 0 -14 -3 -6 -6z"/>
<path d="M21792 23948 c-9 -9 -11 -184 -10 -737 l3 -726 5 730 5 730 870 5
870 5 -865 3 c-663 1 -869 -1 -878 -10z"/>
<path d="M33836 23953 c-4 -5 -992 -10 -2194 -13 l-2187 -5 2192 0 c1740 0
2195 3 2205 13 7 7 8 12 2 12 -6 0 -14 -3 -18 -7z"/>
<path d="M29435 23195 c0 -390 1 -552 2 -358 2 193 2 513 0 710 -1 197 -2 39
-2 -352z"/>
<path d="M14184 23808 l-19 -23 23 19 c12 11 22 21 22 23 0 8 -8 2 -26 -19z"/>
<path d="M11051 23158 c-1 -440 2 -668 9 -668 12 0 13 1236 1 1295 -5 23 -9
-246 -10 -627z"/>
<path d="M23850 23816 c0 -2 8 -10 18 -17 15 -13 16 -12 3 4 -13 16 -21 21
-21 13z"/>
<path d="M23905 23770 c10 -11 20 -20 23 -20 3 0 -3 9 -13 20 -10 11 -20 20
-23 20 -3 0 3 -9 13 -20z"/>
<path d="M23930 23736 c0 -2 8 -10 18 -17 15 -13 16 -12 3 4 -13 16 -21 21
-21 13z"/>
<path d="M18715 23110 c0 -344 1 -484 2 -312 2 171 2 453 0 625 -1 171 -2 31
-2 -313z"/>
<path d="M24081 23384 c0 -11 3 -14 6 -6 3 7 2 16 -1 19 -3 4 -6 -2 -5 -13z"/>
<path d="M14016 23309 c-10 -104 -7 -819 4 -819 7 0 10 153 10 440 0 242 -2
440 -4 440 -2 0 -6 -28 -10 -61z"/>
<path d="M24095 22905 c0 -231 1 -324 2 -207 2 117 2 306 0 420 -1 114 -2 18
-2 -213z"/>
<path d="M6365 22895 c0 -225 1 -319 2 -208 2 111 2 295 0 410 -1 114 -2 24
-2 -202z"/>
<path d="M4105 21230 c0 -476 1 -670 2 -432 2 237 2 627 0 865 -1 237 -2 43
-2 -433z"/>
<path d="M6360 21226 c0 -682 -3 -865 -12 -869 -8 -3 -6 -6 5 -6 16 -1 17 47
17 869 0 479 -2 870 -5 870 -3 0 -5 -389 -5 -864z"/>
<path d="M11051 21933 c0 -98 4 -150 9 -138 12 29 12 295 0 295 -6 0 -10 -59
-9 -157z"/>
<path d="M14010 21223 c0 -564 4 -863 10 -853 14 21 14 1720 0 1720 -7 0 -10
-296 -10 -867z"/>
<path d="M18711 21223 c0 -494 4 -859 9 -848 13 29 13 1715 0 1715 -7 0 -10
-295 -9 -867z"/>
<path d="M21785 21235 c0 -473 1 -665 2 -427 2 239 2 626 0 860 -1 235 -2 40
-2 -433z"/>
<path d="M26365 21230 c0 -476 1 -670 2 -432 2 237 2 627 0 865 -1 237 -2 43
-2 -433z"/>
<path d="M29435 21685 c0 -225 1 -319 2 -208 2 111 2 295 0 410 -1 114 -2 24
-2 -202z"/>
<path d="M8891 21759 c-1 -9 7 -23 17 -30 15 -12 16 -12 6 1 -6 8 -14 22 -17
30 -5 13 -6 12 -6 -1z"/>
<path d="M32950 21083 c0 -4 5 -15 10 -23 8 -13 10 -13 10 2 0 9 -4 20 -10 23
-5 3 -10 3 -10 -2z"/>
<path d="M11795 19960 c-11 -5 460 -9 1086 -9 919 -1 1108 -3 1118 -15 8 -10
10 -328 9 -1187 l-3 -1174 -1115 -5 c-613 -3 -1107 -8 -1097 -12 10 -5 508 -8
1106 -8 967 0 1089 2 1109 16 l22 15 0 1179 0 1179 -22 15 c-20 14 -141 16
-1108 15 -597 0 -1094 -4 -1105 -9z"/>
<path d="M4123 19953 c-10 -4 -12 -249 -11 -1186 l3 -1182 5 1180 5 1180 1095
3 c829 2 1100 -1 1117 -9 l23 -12 3 -1171 2 -1171 3 1181 2 1182 -22 6 c-27 7
-2208 7 -2225 -1z"/>
<path d="M17636 19953 c869 -3 1054 -5 1063 -17 8 -9 10 -330 9 -1187 l-3
-1174 -1077 -3 c-707 -1 -1078 -6 -1078 -12 0 -7 367 -10 1070 -10 1057 0
1070 0 1090 20 20 20 20 33 20 1179 0 1157 0 1158 -21 1185 l-20 26 -1052 -2
-1052 -3 1051 -2z"/>
<path d="M19465 19950 c-5 -9 2301 -21 2315 -12 28 18 -155 22 -1167 22 -744
0 -1144 -3 -1148 -10z"/>
<path d="M25228 19953 c617 -2 1123 -4 1124 -6 2 -1 5 -533 8 -1182 l5 -1180
3 1181 c2 1070 1 1182 -14 1188 -9 3 -518 5 -1132 4 l-1117 -3 1123 -2z"/>
<path d="M28557 19953 c810 -2 2136 -2 2945 0 810 1 148 2 -1472 2 -1620 0
-2282 -1 -1473 -2z"/>
<path d="M11775 18760 c0 -652 1 -918 2 -593 2 326 2 860 0 1185 -1 326 -2 60
-2 -592z"/>
<path d="M19435 18765 c0 -643 1 -905 2 -582 2 324 2 850 0 1170 -1 320 -2 56
-2 -588z"/>
<path d="M16545 18745 c0 -643 1 -905 2 -582 2 324 2 850 0 1170 -1 320 -2 56
-2 -588z"/>
<path d="M32810 18965 c-14 -8 -19 -14 -10 -14 8 0 24 6 34 14 25 19 9 19 -24
0z"/>
<path d="M29430 18238 c-3 -367 -2 -664 3 -659 4 4 6 304 5 667 l-3 659 -5
-667z"/>
<path d="M9082 18710 c-29 -4 -56 -11 -60 -15 -4 -4 13 -4 38 0 25 4 412 9
860 12 930 5 983 3 1045 -53 20 -17 46 -49 58 -71 22 -38 22 -43 22 -526 0
-392 2 -484 13 -470 19 26 17 862 -3 938 -27 105 -92 166 -196 184 -76 13
-1688 14 -1777 1z"/>
<path d="M8906 18576 c-14 -23 -16 -75 -14 -503 l3 -478 2 473 c3 417 5 476
19 498 9 13 14 27 12 30 -3 2 -13 -7 -22 -20z"/>
<path d="M20610 17570 l-1145 -5 1145 -2 c726 -2 1150 1 1160 7 13 9 13 9 0 7
-8 -1 -530 -4 -1160 -7z"/>
<path d="M4692 17563 c302 -2 794 -2 1096 0 301 1 54 2 -548 2 -602 0 -849 -1
-548 -2z"/>
<path d="M9452 17563 c291 -2 765 -2 1055 0 291 1 53 2 -527 2 -580 0 -818 -1
-528 -2z"/>
<path d="M24663 17563 c306 -2 808 -2 1115 0 306 1 55 2 -558 2 -613 0 -864
-1 -557 -2z"/>
<path d="M27668 17563 c320 -2 844 -2 1165 0 320 1 58 2 -583 2 -641 0 -903
-1 -582 -2z"/>
<path d="M8915 17160 c-4 -7 356 -11 1062 -12 l1068 -3 -1 -500 c-1 -423 -4
-510 -18 -568 -20 -85 -20 -115 0 -62 23 60 36 304 41 734 3 350 2 385 -13
402 -16 18 -55 19 -1075 19 -691 0 -1060 -3 -1064 -10z"/>
<path d="M19447 17158 c-14 -11 215 -13 1155 -13 l1173 0 3 -390 c2 -352 4
-391 19 -402 13 -10 188 -12 812 -11 l796 3 -794 2 c-566 2 -798 6 -808 14
-10 9 -13 86 -13 394 0 357 -1 383 -18 398 -17 16 -112 17 -1163 17 -900 0
-1149 -3 -1162 -12z"/>
<path d="M24110 17162 c-8 -4 494 -9 1115 -12 l1130 -5 -1 -470 c0 -258 3
-452 7 -430 4 22 8 232 8 466 1 400 0 427 -17 442 -17 16 -109 17 -1123 16
-607 0 -1111 -4 -1119 -7z"/>
<path d="M28285 17150 l1140 -5 3 -386 c2 -358 4 -387 20 -402 17 -16 196 -17
2203 -20 1201 -2 2198 -6 2214 -10 17 -4 12 0 -10 7 -34 12 -376 15 -2202 15
-1378 1 -2171 5 -2187 11 l-26 10 0 383 c0 285 -3 386 -12 395 -9 9 -275 11
-1147 10 l-1136 -3 1140 -5z"/>
<path d="M14011 17080 c1 -36 5 -96 9 -135 6 -65 7 -61 8 50 1 66 -3 127 -8
135 -7 10 -9 -5 -9 -50z"/>
<path d="M24089 17015 c-3 -71 -9 -139 -12 -150 -4 -11 0 -5 8 13 12 25 15 61
13 150 l-3 117 -6 -130z"/>
<path d="M6364 17035 c0 -55 1 -76 3 -47 2 29 2 74 0 100 -2 26 -3 2 -3 -53z"/>
<path d="M16543 17055 c0 -33 2 -45 4 -27 2 18 2 45 0 60 -2 15 -4 0 -4 -33z"/>
<path d="M18714 16835 c0 -154 2 -216 3 -137 2 79 2 205 0 280 -1 75 -3 11 -3
-143z"/>
<path d="M27085 16305 c0 -434 1 -611 2 -392 2 219 2 575 0 790 -1 216 -2 37
-2 -398z"/>
<path d="M8882 16835 c0 -16 2 -22 5 -12 2 9 2 23 0 30 -3 6 -5 -1 -5 -18z"/>
<path d="M6371 16804 c0 -11 3 -14 6 -6 3 7 2 16 -1 19 -3 4 -6 -2 -5 -13z"/>
<path d="M24061 16804 c0 -11 3 -14 6 -6 3 7 2 16 -1 19 -3 4 -6 -2 -5 -13z"/>
<path d="M14031 16794 c0 -11 3 -14 6 -6 3 7 2 16 -1 19 -3 4 -6 -2 -5 -13z"/>
<path d="M6411 16634 c0 -11 3 -14 6 -6 3 7 2 16 -1 19 -3 4 -6 -2 -5 -13z"/>
<path d="M6496 16488 c10 -14 21 -24 23 -22 3 3 -6 15 -18 27 l-24 22 19 -27z"/>
<path d="M18704 16380 c0 -69 1 -97 3 -62 2 34 2 90 0 125 -2 34 -3 6 -3 -63z"/>
<path d="M8684 16418 l-29 -33 33 29 c30 28 37 36 29 36 -2 0 -16 -15 -33 -32z"/>
<path d="M6562 16415 c15 -16 29 -27 31 -24 3 2 -10 15 -27 28 l-31 24 27 -28z"/>
<path d="M23688 16393 c7 -3 16 -2 19 1 4 3 -2 6 -13 5 -11 0 -14 -3 -6 -6z"/>
<path d="M23443 16353 c9 -2 25 -2 35 0 9 3 1 5 -18 5 -19 0 -27 -2 -17 -5z"/>
<path d="M11781 16309 c1 -24 5 -55 9 -69 5 -15 6 1 3 40 -7 76 -13 93 -12 29z"/>
<path d="M6778 16293 c7 -3 16 -2 19 1 4 3 -2 6 -13 5 -11 0 -14 -3 -6 -6z"/>
<path d="M8458 16293 c7 -3 16 -2 19 1 4 3 -2 6 -13 5 -11 0 -14 -3 -6 -6z"/>
<path d="M14683 16293 c9 -2 25 -2 35 0 9 3 1 5 -18 5 -19 0 -27 -2 -17 -5z"/>
<path d="M15853 16293 c9 -2 23 -2 30 0 6 3 -1 5 -18 5 -16 0 -22 -2 -12 -5z"/>
<path d="M33970 16230 c0 -8 7 -28 15 -44 12 -23 15 -85 15 -357 l0 -329
-3457 -3 -3458 -2 3463 -3 3462 -2 0 348 c0 329 -1 349 -20 377 -11 17 -20 23
-20 15z"/>
<path d="M4121 16164 c0 -11 3 -14 6 -6 3 7 2 16 -1 19 -3 4 -6 -2 -5 -13z"/>
<path d="M11801 16134 c0 -11 3 -14 6 -6 3 7 2 16 -1 19 -3 4 -6 -2 -5 -13z"/>
<path d="M26332 16089 c-15 -65 -16 -122 -1 -97 10 18 25 148 17 148 -2 0 -10
-23 -16 -51z"/>
<path d="M4135 16070 c9 -115 21 -180 34 -193 11 -10 12 -8 3 8 -5 11 -13 60
-17 109 -4 49 -12 101 -16 115 -6 17 -7 4 -4 -39z"/>
<path d="M18678 16071 c-5 -18 -8 -45 -8 -60 1 -23 2 -24 11 -8 6 9 9 36 7 60
l-3 42 -7 -34z"/>
<path d="M11811 15985 c0 -16 6 -41 14 -55 18 -32 18 -17 1 40 -13 40 -15 42
-15 15z"/>
<path d="M11002 15903 c-1 -17 -6 -35 -12 -38 -5 -3 -10 -14 -10 -23 0 -13 3
-12 16 6 9 13 14 35 11 55 l-4 32 -1 -32z"/>
<path d="M26311 15914 c0 -11 3 -14 6 -6 3 7 2 16 -1 19 -3 4 -6 -2 -5 -13z"/>
<path d="M26296 15873 c-4 -10 -10 -47 -13 -83 -3 -36 -13 -75 -20 -87 -8 -12
-13 -30 -10 -40 4 -16 5 -16 6 2 1 11 8 29 16 39 8 11 15 38 15 60 0 23 5 58
11 79 11 40 7 62 -5 30z"/>
<path d="M4181 15814 c0 -11 3 -14 6 -6 3 7 2 16 -1 19 -3 4 -6 -2 -5 -13z"/>
<path d="M10972 15780 c0 -14 2 -19 5 -12 2 6 2 18 0 25 -3 6 -5 1 -5 -13z"/>
<path d="M11851 15775 c0 -11 6 -31 14 -45 l15 -25 -6 30 c-4 17 -10 37 -15
45 -7 12 -8 11 -8 -5z"/>
<path d="M4191 15739 c-1 -8 6 -24 15 -35 15 -19 15 -19 6 1 -5 11 -12 27 -15
35 -5 13 -6 13 -6 -1z"/>
<path d="M10952 15706 c-17 -37 -15 -45 4 -18 8 12 14 27 12 33 -2 6 -9 -1
-16 -15z"/>
<path d="M11901 15614 c0 -11 3 -14 6 -6 3 7 2 16 -1 19 -3 4 -6 -2 -5 -13z"/>
<path d="M26231 15593 c-10 -26 -10 -27 4 -9 8 11 15 23 15 28 0 15 -7 8 -19
-19z"/>
<path d="M18572 15575 c-7 -14 -12 -34 -11 -43 0 -9 7 1 15 22 16 45 13 59 -4
21z"/>
<path d="M4241 15580 c1 -8 5 -26 9 -40 l8 -25 1 25 c0 14 -4 32 -9 40 -9 13
-10 13 -9 0z"/>
<path d="M10909 15563 c-5 -14 -8 -30 -6 -36 1 -5 8 7 14 27 13 42 7 49 -8 9z"/>
<path d="M11912 15560 c0 -14 2 -19 5 -12 2 6 2 18 0 25 -3 6 -5 1 -5 -13z"/>
<path d="M11934 15513 l19 -23 3298 0 c1814 0 3300 3 3302 8 3 4 -1480 6
-3296 4 -3133 -2 -3301 -1 -3321 15 -21 18 -21 18 -2 -4z"/>
<path d="M19433 15510 c3 -13 390 -15 3390 -18 1863 -1 3387 1 3387 5 0 5
-1522 7 -3382 5 -2701 -2 -3384 0 -3391 10 -6 10 -7 9 -4 -2z"/>
<path d="M5928 15493 c908 -2 2396 -2 3305 0 908 1 165 2 -1653 2 -1818 0
-2561 -1 -1652 -2z"/>
<path d="M10670 15040 c-6 -11 -8 -20 -6 -20 3 0 10 9 16 20 6 11 8 20 6 20
-3 0 -10 -9 -16 -20z"/>
<path d="M34002 14665 c-2 -422 -5 -455 -52 -510 -9 -11 -20 -27 -25 -35 -4
-8 5 -1 19 15 14 17 35 48 46 70 20 39 20 54 18 450 l-3 410 -3 -400z"/>
<path d="M25980 15035 c-7 -9 -11 -17 -9 -20 3 -2 10 5 17 15 14 24 10 26 -8
5z"/>
<path d="M27085 14665 c0 -192 1 -270 2 -172 2 98 2 256 0 350 -1 95 -3 15 -2
-178z"/>
<path d="M10635 14989 c-4 -6 -5 -12 -2 -15 2 -3 7 2 10 11 7 17 1 20 -8 4z"/>
<path d="M25945 14989 c-4 -6 -5 -12 -2 -15 2 -3 7 2 10 11 7 17 1 20 -8 4z"/>
<path d="M10600 14935 c-7 -9 -11 -17 -9 -20 3 -2 10 5 17 15 14 24 10 26 -8
5z"/>
<path d="M25905 14929 c-4 -6 -5 -12 -2 -15 2 -3 7 2 10 11 7 17 1 20 -8 4z"/>
<path d="M12240 14911 c0 -6 4 -13 10 -16 6 -3 7 1 4 9 -7 18 -14 21 -14 7z"/>
<path d="M10539 14853 c-13 -16 -12 -17 4 -4 9 7 17 15 17 17 0 8 -8 3 -21
-13z"/>
<path d="M18179 14833 l-34 -38 38 34 c34 33 42 41 34 41 -2 0 -19 -17 -38
-37z"/>
<path d="M17936 14594 c-15 -14 -26 -27 -24 -29 2 -3 17 9 33 25 35 36 30 39
-9 4z"/>
<path d="M4940 14546 c0 -2 8 -10 18 -17 15 -13 16 -12 3 4 -13 16 -21 21 -21
13z"/>
<path d="M12600 14546 c0 -2 7 -9 15 -16 9 -7 15 -8 15 -2 0 5 -7 12 -15 16
-8 3 -15 4 -15 2z"/>
<path d="M25519 14533 c-13 -16 -12 -17 4 -4 9 7 17 15 17 17 0 8 -8 3 -21
-13z"/>
<path d="M4985 14510 c3 -5 11 -10 16 -10 6 0 7 5 4 10 -3 6 -11 10 -16 10 -6
0 -7 -4 -4 -10z"/>
<path d="M10170 14510 c-9 -6 -10 -10 -3 -10 6 0 15 5 18 10 8 12 4 12 -15 0z"/>
<path d="M12645 14510 c3 -5 11 -10 16 -10 6 0 7 5 4 10 -3 6 -11 10 -16 10
-6 0 -7 -4 -4 -10z"/>
<path d="M25459 14493 c-13 -16 -12 -17 4 -4 9 7 17 15 17 17 0 8 -8 3 -21
-13z"/>
<path d="M17719 14433 c-13 -16 -12 -17 4 -4 9 7 17 15 17 17 0 8 -8 3 -21
-13z"/>
<path d="M25370 14435 c-7 -8 -18 -15 -24 -15 -7 0 -21 -7 -32 -15 -17 -14
-17 -14 11 -3 35 14 82 48 68 48 -6 0 -16 -7 -23 -15z"/>
<path d="M5147 14409 c7 -7 15 -10 18 -7 3 3 -2 9 -12 12 -14 6 -15 5 -6 -5z"/>
<path d="M10014 14404 c-18 -14 -18 -15 4 -4 12 6 22 13 22 15 0 8 -5 6 -26
-11z"/>
<path d="M12800 14416 c0 -3 9 -10 20 -16 11 -6 20 -8 20 -6 0 3 -9 10 -20 16
-11 6 -20 8 -20 6z"/>
<path d="M17670 14410 c-8 -5 -10 -10 -5 -10 6 0 17 5 25 10 8 5 11 10 5 10
-5 0 -17 -5 -25 -10z"/>
<path d="M5358 14303 c7 -3 16 -2 19 1 4 3 -2 6 -13 5 -11 0 -14 -3 -6 -6z"/>
<path d="M17458 14303 c7 -3 16 -2 19 1 4 3 -2 6 -13 5 -11 0 -14 -3 -6 -6z"/>
<path d="M25108 14303 c7 -3 16 -2 19 1 4 3 -2 6 -13 5 -11 0 -14 -3 -6 -6z"/>
<path d="M19431 14264 c-1 -16 6 -39 15 -50 15 -19 16 -19 9 1 -4 11 -11 34
-15 50 l-8 30 -1 -31z"/>
<path d="M5460 14266 c0 -2 7 -7 16 -10 8 -3 12 -2 9 4 -6 10 -25 14 -25 6z"/>
<path d="M24995 14260 c-3 -6 1 -7 9 -4 18 7 21 14 7 14 -6 0 -13 -4 -16 -10z"/>
<path d="M27090 14244 c0 -12 7 -27 15 -34 19 -16 19 -3 0 30 -13 24 -14 24
-15 4z"/>
<path d="M5566 14225 c10 -8 26 -14 34 -14 9 0 4 6 -10 14 -33 19 -49 19 -24
0z"/>
<path d="M9600 14225 c-14 -8 -20 -14 -14 -15 5 0 19 7 30 15 24 18 16 19 -16
0z"/>
<path d="M13216 14225 c10 -8 28 -14 39 -14 18 0 17 1 -5 14 -34 20 -60 20
-34 0z"/>
<path d="M17240 14225 c-14 -8 -19 -14 -10 -14 8 0 26 6 40 14 14 8 19 14 10
14 -8 0 -26 -6 -40 -14z"/>
<path d="M24890 14225 c-14 -8 -19 -14 -10 -14 8 0 24 6 34 14 25 19 9 19 -24
0z"/>
<path d="M5658 14203 c7 -3 16 -2 19 1 4 3 -2 6 -13 5 -11 0 -14 -3 -6 -6z"/>
<path d="M9508 14196 c-15 -8 -40 -17 -55 -19 l-28 -4 26 -2 c15 0 46 8 70 19
24 11 37 20 29 20 -8 0 -27 -7 -42 -14z"/>
<path d="M13308 14203 c7 -3 16 -2 19 1 4 3 -2 6 -13 5 -11 0 -14 -3 -6 -6z"/>
<path d="M24808 14203 c7 -3 16 -2 19 1 4 3 -2 6 -13 5 -11 0 -14 -3 -6 -6z"/>
<path d="M5704 14185 c11 -8 34 -14 50 -14 l31 2 -30 4 c-16 3 -34 9 -39 14
-6 5 -15 9 -20 9 -6 0 -2 -7 8 -15z"/>
<path d="M13354 14185 c11 -8 34 -14 50 -14 l31 2 -30 4 c-16 3 -34 9 -39 14
-6 5 -15 9 -20 9 -6 0 -2 -7 8 -15z"/>
<path d="M24771 14191 c-8 -5 -40 -12 -71 -16 -31 -4 -63 -11 -71 -17 -10 -7
-4 -8 21 -4 80 13 122 24 133 35 13 13 7 14 -12 2z"/>
<path d="M17063 14173 c9 -2 23 -2 30 0 6 3 -1 5 -18 5 -16 0 -22 -2 -12 -5z"/>
<path d="M5805 14160 c11 -5 29 -9 40 -9 17 -1 17 1 5 9 -8 5 -26 9 -40 9 -23
0 -23 -1 -5 -9z"/>
<path d="M9365 14160 c-4 -7 3 -8 22 -4 38 9 42 14 10 14 -14 0 -29 -5 -32
-10z"/>
<path d="M13468 14163 c7 -3 16 -2 19 1 4 3 -2 6 -13 5 -11 0 -14 -3 -6 -6z"/>
<path d="M16980 14160 c-13 -9 -13 -10 0 -9 8 1 26 5 40 9 l25 8 -25 1 c-14 0
-32 -4 -40 -9z"/>
<path d="M19490 14135 c13 -14 26 -25 28 -25 3 0 -5 11 -18 25 -13 14 -26 25
-28 25 -3 0 5 -11 18 -25z"/>
<path d="M5990 14125 c14 -8 36 -14 50 -14 22 0 21 2 -10 14 -47 18 -71 18
-40 0z"/>
<path d="M9190 14127 c-53 -16 -12 -19 45 -3 40 11 44 14 20 14 -16 0 -46 -5
-65 -11z"/>
<path d="M13650 14125 c7 -8 24 -15 38 -15 32 0 25 8 -17 20 -28 8 -31 7 -21
-5z"/>
<path d="M24450 14125 l-35 -13 30 -1 c17 0 39 6 49 14 25 19 5 19 -44 0z"/>
<path d="M16790 14120 c-12 -8 -12 -10 5 -10 11 0 27 5 35 10 12 8 12 10 -5
10 -11 0 -27 -5 -35 -10z"/>
<path d="M6123 14103 c9 -2 25 -2 35 0 9 3 1 5 -18 5 -19 0 -27 -2 -17 -5z"/>
<path d="M8967 14099 c-38 -4 -71 -10 -74 -13 -7 -6 128 4 182 14 l40 8 -40 0
c-22 -1 -71 -4 -108 -9z"/>
<path d="M13778 14103 c6 -2 18 -2 25 0 6 3 1 5 -13 5 -14 0 -19 -2 -12 -5z"/>
<path d="M16693 14103 c9 -2 23 -2 30 0 6 3 -1 5 -18 5 -16 0 -22 -2 -12 -5z"/>
<path d="M19559 14089 c21 -13 45 -19 65 -16 l31 4 -35 2 c-19 1 -44 8 -54 16
-11 8 -25 15 -30 15 -6 0 4 -9 23 -21z"/>
<path d="M24318 14103 c12 -2 32 -2 45 0 12 2 2 4 -23 4 -25 0 -35 -2 -22 -4z"/>
<path d="M6260 14091 c25 -9 107 -15 99 -7 -2 2 -31 6 -64 9 -39 4 -51 3 -35
-2z"/>
<path d="M13915 14089 c22 -4 54 -8 70 -7 22 0 19 3 -15 9 -60 10 -108 9 -55
-2z"/>
<path d="M24187 14093 c-4 -3 -71 -9 -149 -13 l-143 -7 145 -1 c109 -1 151 2
170 13 23 13 23 14 4 15 -11 0 -24 -3 -27 -7z"/>
<path d="M33845 14091 c-6 -5 -21 -11 -35 -14 l-25 -4 26 -2 c14 0 34 6 45 14
10 8 14 15 9 15 -6 0 -15 -4 -20 -9z"/>
<path d="M16488 14083 c12 -2 30 -2 40 0 9 3 -1 5 -23 4 -22 0 -30 -2 -17 -4z"/>
<path d="M27268 14073 c6 -2 18 -2 25 0 6 3 1 5 -13 5 -14 0 -19 -2 -12 -5z"/>
<path d="M3380 11380 c0 -17 7 -20 48 -20 44 0 72 12 72 32 0 4 -27 8 -60 8
-53 0 -60 -2 -60 -20z"/>
<path d="M3380 9511 c0 -8 338 -21 350 -13 2 2 -2 7 -10 12 -19 13 -340 13
-340 1z"/>
<path d="M28555 7792 c-81 -12 -119 -13 -200 -4 -55 6 -101 9 -103 7 -2 -1 41
-11 95 -21 152 -29 727 -25 709 5 -3 4 -54 6 -114 3 -62 -2 -140 1 -178 7 -38
7 -78 14 -89 15 -11 2 -65 -3 -120 -12z"/>
</g>
</svg>
